<?xml version="1.0" encoding="UTF-8"?>
<svg width="16px" height="13px" viewBox="0 0 16 13" version="1.1" xmlns="http://www.w3.org/2000/svg" xmlns:xlink="http://www.w3.org/1999/xlink">
    <!-- Generator: Sketch 54.1 (76490) - https://sketchapp.com -->
    <title>Icn/facebook/w3w/filled/16 Copy</title>
    <desc>Created with Sketch.</desc>
    <g id="Footer" stroke="none" stroke-width="1" fill="none" fill-rule="evenodd">
        <g id="Footer/Assets/Site/Maximum" transform="translate(-104.000000, -654.000000)" fill="#FFFFFF">
            <g id="Icn/twitter/w3w/16" transform="translate(96.000000, 645.000000)">
                <path d="M13.0200085,22.0097914 C19.0617284,22.0097914 22.3652618,17.0034057 22.3652618,12.6645381 C22.3652618,12.5214985 22.3652618,12.3784589 22.3584504,12.2422307 C22.9987229,11.7790549 23.5572584,11.2000851 24,10.5393785 C23.4142188,10.798212 22.7807578,10.9753086 22.1132397,11.0570456 C22.7943806,10.648361 23.3120477,10.0080885 23.5572584,9.23839932 C22.9237974,9.61302682 22.2222222,9.88548318 21.4729672,10.0353342 C20.8735632,9.39506173 20.0221371,9 19.0753512,9 C17.2635164,9 15.792252,10.4712644 15.792252,12.2830992 C15.792252,12.5419327 15.8194977,12.7939549 15.8808003,13.0323542 C13.1494253,12.896126 10.7313751,11.5883355 9.11025968,9.599404 C8.83099191,10.083014 8.66751809,10.648361 8.66751809,11.247765 C8.66751809,12.3852703 9.24648787,13.3933589 10.1319711,13.9791401 C9.59386973,13.9655172 9.08982546,13.8156662 8.64708387,13.5704555 C8.64708387,13.5840783 8.64708387,13.5977011 8.64708387,13.611324 C8.64708387,15.2051937 9.77777778,16.5266071 11.2830992,16.8331205 C11.0106428,16.908046 10.7177522,16.9489144 10.4180502,16.9489144 C10.2068966,16.9489144 10.0025543,16.9284802 9.79821201,16.8876117 C10.213708,18.1954023 11.4261388,19.1421882 12.8633461,19.1694338 C11.7394636,20.0481056 10.3226905,20.5725841 8.78331205,20.5725841 C8.51766709,20.5725841 8.25883355,20.5589613 8,20.5249042 C9.43720732,21.4648787 11.1673052,22.0097914 13.0200085,22.0097914" id="Twitter-Icon"></path>
            </g>
        </g>
    </g>
</svg>